<svg width="53" height="47" viewBox="0 0 53 47" fill="none" xmlns="http://www.w3.org/2000/svg">
<ellipse cx="26.5" cy="23.5" rx="26.5" ry="23.5" fill="#D9D9D9"/>
<path d="M13.1692 29.473C12.2159 29.4723 11.2453 29.3501 10.2575 29.1067C9.26972 28.8805 8.44664 28.5765 7.78828 28.1946L7.92118 24.6587L8.18118 24.659L8.9858 26.3496C9.22806 26.8351 9.48771 27.2687 9.76473 27.6503C10.0418 28.0145 10.4229 28.3008 10.908 28.5092C11.2545 28.6828 11.5838 28.8044 11.8957 28.874C12.225 28.9263 12.589 28.9526 12.9877 28.9529C14.045 28.9538 14.8772 28.6685 15.4844 28.0969C16.1088 27.5255 16.4214 26.7891 16.4222 25.8877C16.4229 25.0384 16.2154 24.3795 15.7998 23.9112C15.3842 23.4255 14.7173 22.957 13.799 22.5056L12.7333 22.0367C11.2432 21.3768 10.0738 20.6218 9.2252 19.7718C8.39391 18.9045 7.97885 17.7601 7.98001 16.3388C7.98085 15.3161 8.24158 14.4323 8.76219 13.6874C9.30014 12.9425 10.0373 12.3711 10.9736 11.9732C11.9273 11.5754 13.0368 11.3769 14.3021 11.378C15.2208 11.3787 16.0873 11.5008 16.9018 11.7441C17.7336 11.9875 18.4527 12.3174 19.059 12.7339L18.9004 15.8537L18.6404 15.8535L17.576 13.9027C17.2818 13.2958 16.9875 12.8708 16.6931 12.6279C16.3986 12.3677 16.0608 12.1854 15.6795 12.0811C15.4542 12.0116 15.2463 11.9681 15.0556 11.9506C14.865 11.9158 14.6223 11.8982 14.3277 11.898C13.4437 11.8973 12.6981 12.1567 12.091 12.6762C11.4839 13.1783 11.18 13.8627 11.1793 14.7294C11.1786 15.6134 11.412 16.3243 11.8796 16.862C12.3472 17.3824 13.0314 17.8509 13.9324 18.2677L15.128 18.7887C16.7914 19.518 17.9868 20.299 18.7141 21.1316C19.4414 21.9469 19.8045 23.0045 19.8035 24.3045C19.8022 25.8298 19.2205 27.0773 18.0584 28.0471C16.9136 28.9995 15.2839 29.4748 13.1692 29.473ZM25.772 29.4054C24.6626 29.4045 23.7962 29.1264 23.1727 28.5713C22.5665 28.0161 22.2638 27.1318 22.2648 25.9185L22.2721 17.0265L20.4781 17.025L20.4784 16.765L21.1024 16.6616C21.6399 16.5407 22.0993 16.3677 22.4809 16.1427C22.8797 15.9177 23.27 15.6147 23.6516 15.2336L25.7856 12.8694L26.0456 12.8696L25.9646 16.5095L28.8766 16.5119L28.8761 17.0319L25.9381 17.0295L25.9305 26.3895C25.93 26.9962 26.0596 27.4556 26.3193 27.7678C26.5964 28.0801 26.9429 28.2364 27.3589 28.2367C27.7229 28.237 28.0437 28.1506 28.3212 27.9775C28.5986 27.787 28.8762 27.5359 29.1538 27.2242L29.4136 27.4844C29.0664 28.0734 28.5894 28.541 27.9824 28.8872C27.3755 29.2334 26.6386 29.4061 25.772 29.4054ZM34.0225 29.4122C33.0172 29.4113 32.1681 29.1246 31.4752 28.5521C30.7997 27.9795 30.4624 27.1559 30.4632 26.0812C30.4639 25.2666 30.8805 24.5216 31.7131 23.8463C32.5456 23.1536 33.8547 22.6347 35.6404 22.2895C35.9177 22.2377 36.2298 22.186 36.5765 22.1343C36.9232 22.0652 37.2873 21.9962 37.6687 21.9272L37.6703 19.8732C37.6713 18.6945 37.5247 17.871 37.2304 17.4028C36.9534 16.9172 36.5116 16.6742 35.905 16.6737C35.489 16.6734 35.1595 16.8118 34.9166 17.0889C34.6737 17.3487 34.5174 17.8079 34.4475 18.4665L34.3953 18.7525C34.36 19.4978 34.1775 20.0436 33.8479 20.39C33.5183 20.7364 33.1108 20.9094 32.6255 20.909C32.1748 20.9086 31.8023 20.7697 31.5078 20.4921C31.2134 20.2145 31.0664 19.8417 31.0667 19.3737C31.0673 18.6631 31.3105 18.0653 31.7962 17.5803C32.2993 17.0954 32.9583 16.732 33.7731 16.49C34.588 16.248 35.4721 16.1274 36.4254 16.1281C37.9681 16.1294 39.1551 16.5117 39.9865 17.2751C40.8352 18.0211 41.2589 19.2434 41.2575 20.9421L41.2527 26.6881C41.2521 27.4681 41.6158 27.8584 42.3438 27.859L42.9158 27.8595L43.1496 28.0677C42.8199 28.4834 42.4557 28.8038 42.0568 29.0288C41.6753 29.2538 41.1292 29.366 40.4186 29.3654C39.6559 29.3648 39.0494 29.191 38.599 28.8439C38.1659 28.4796 37.8803 28.0027 37.7422 27.4132C37.2217 27.9675 36.684 28.4437 36.129 28.8419C35.5913 29.2228 34.8892 29.4129 34.0225 29.4122ZM35.6098 27.8275C35.9565 27.8278 36.2772 27.75 36.572 27.5943C36.8841 27.4212 37.2484 27.1615 37.6646 26.8152L37.6682 22.4472C37.4949 22.4817 37.3215 22.5162 37.1481 22.5507C36.9748 22.5853 36.7754 22.6198 36.5501 22.6542C35.7526 22.8616 35.1109 23.2164 34.6252 23.7187C34.1568 24.2036 33.9222 24.8621 33.9216 25.6941C33.921 26.4047 34.0852 26.9422 34.4142 27.3065C34.7433 27.6534 35.1418 27.8271 35.6098 27.8275Z" fill="#212223"/>
<path d="M47.0635 29.4229C46.4395 29.4224 45.911 29.2053 45.4781 28.7716C45.0451 28.3379 44.8289 27.8177 44.8294 27.211C44.8298 26.6044 45.0469 26.0759 45.4807 25.6256C45.9144 25.1753 46.4432 24.9504 47.0672 24.9509C47.6912 24.9514 48.2197 25.1772 48.6527 25.6282C49.0856 26.0792 49.3018 26.608 49.3013 27.2147C49.3009 27.8214 49.0838 28.3412 48.6501 28.7742C48.2164 29.2072 47.6875 29.4234 47.0635 29.4229Z" fill="#0080F0"/>
</svg>
