<svg width="106" height="25" viewBox="0 0 106 25" fill="none" xmlns="http://www.w3.org/2000/svg">
<path d="M6.12343 18.968C5.17009 18.968 4.19943 18.8467 3.21143 18.604C2.22343 18.3787 1.40009 18.0753 0.741426 17.694L0.871426 14.158H1.13143L1.93743 15.848C2.18009 16.3333 2.44009 16.7667 2.71743 17.148C2.99476 17.512 3.37609 17.798 3.86143 18.006C4.20809 18.1793 4.53743 18.3007 4.84943 18.37C5.17876 18.422 5.54276 18.448 5.94143 18.448C6.99876 18.448 7.83076 18.162 8.43743 17.59C9.06143 17.018 9.37343 16.2813 9.37343 15.38C9.37343 14.5307 9.16543 13.872 8.74943 13.404C8.33343 12.9187 7.66609 12.4507 6.74743 12L5.68143 11.532C4.19076 10.8733 3.02076 10.1193 2.17143 9.27C1.33943 8.40333 0.923426 7.25933 0.923426 5.838C0.923426 4.81533 1.18343 3.93133 1.70343 3.186C2.24076 2.44067 2.97743 1.86867 3.91343 1.47C4.86676 1.07133 5.97609 0.871999 7.24143 0.871999C8.16009 0.871999 9.02676 0.993332 9.84143 1.236C10.6734 1.47867 11.3928 1.808 11.9994 2.224L11.8434 5.344H11.5834L10.5174 3.394C10.2228 2.78733 9.92809 2.36267 9.63343 2.12C9.33876 1.86 9.00076 1.678 8.61943 1.574C8.39409 1.50467 8.18609 1.46133 7.99543 1.444C7.80476 1.40933 7.56209 1.392 7.26743 1.392C6.38343 1.392 5.63809 1.652 5.03143 2.172C4.42476 2.67467 4.12143 3.35933 4.12143 4.226C4.12143 5.11 4.35543 5.82067 4.82343 6.358C5.29143 6.878 5.97609 7.346 6.87743 7.762L8.07343 8.282C9.73743 9.01 10.9334 9.79 11.6614 10.622C12.3894 11.4367 12.7534 12.494 12.7534 13.794C12.7534 15.3193 12.1728 16.5673 11.0114 17.538C9.86743 18.4913 8.23809 18.968 6.12343 18.968ZM18.7261 18.89C17.6168 18.89 16.7501 18.6127 16.1261 18.058C15.5194 17.5033 15.2161 16.6193 15.2161 15.406V6.514H13.4221V6.254L14.0461 6.15C14.5834 6.02867 15.0428 5.85533 15.4241 5.63C15.8228 5.40467 16.2128 5.10133 16.5941 4.72L18.7261 2.354H18.9861L18.9081 5.994H21.8201V6.514H18.8821V15.874C18.8821 16.4807 19.0121 16.94 19.2721 17.252C19.5494 17.564 19.8961 17.72 20.3121 17.72C20.6761 17.72 20.9968 17.6333 21.2741 17.46C21.5514 17.2693 21.8288 17.018 22.1061 16.706L22.3661 16.966C22.0194 17.5553 21.5428 18.0233 20.9361 18.37C20.3294 18.7167 19.5928 18.89 18.7261 18.89ZM26.9766 18.89C25.9713 18.89 25.122 18.604 24.4286 18.032C23.7526 17.46 23.4146 16.6367 23.4146 15.562C23.4146 14.7473 23.8306 14.002 24.6626 13.326C25.4946 12.6327 26.8033 12.1127 28.5886 11.766C28.866 11.714 29.178 11.662 29.5246 11.61C29.8713 11.5407 30.2353 11.4713 30.6166 11.402V9.348C30.6166 8.16933 30.4693 7.346 30.1746 6.878C29.8973 6.39267 29.4553 6.15 28.8486 6.15C28.4326 6.15 28.1033 6.28867 27.8606 6.566C27.618 6.826 27.462 7.28533 27.3926 7.944L27.3406 8.23C27.306 8.97533 27.124 9.52133 26.7946 9.868C26.4653 10.2147 26.058 10.388 25.5726 10.388C25.122 10.388 24.7493 10.2493 24.4546 9.972C24.16 9.69467 24.0126 9.322 24.0126 8.854C24.0126 8.14333 24.2553 7.54533 24.7406 7.06C25.2433 6.57467 25.902 6.21067 26.7166 5.968C27.5313 5.72533 28.4153 5.604 29.3686 5.604C30.9113 5.604 32.0986 5.98533 32.9306 6.748C33.78 7.49333 34.2046 8.71533 34.2046 10.414V16.16C34.2046 16.94 34.5686 17.33 35.2966 17.33H35.8686L36.1026 17.538C35.7733 17.954 35.4093 18.2747 35.0106 18.5C34.6293 18.7253 34.0833 18.838 33.3726 18.838C32.61 18.838 32.0033 18.6647 31.5526 18.318C31.1193 17.954 30.8333 17.4773 30.6946 16.888C30.1746 17.4427 29.6373 17.9193 29.0826 18.318C28.5453 18.6993 27.8433 18.89 26.9766 18.89ZM28.5626 17.304C28.9093 17.304 29.23 17.226 29.5246 17.07C29.8366 16.8967 30.2006 16.6367 30.6166 16.29V11.922C30.4433 11.9567 30.27 11.9913 30.0966 12.026C29.9233 12.0607 29.724 12.0953 29.4986 12.13C28.7013 12.338 28.06 12.6933 27.5746 13.196C27.1066 13.6813 26.8726 14.34 26.8726 15.172C26.8726 15.8827 27.0373 16.42 27.3666 16.784C27.696 17.1307 28.0946 17.304 28.5626 17.304ZM36.5869 18.5V18.24L36.9509 18.136C37.2802 18.0493 37.5056 17.902 37.6269 17.694C37.7656 17.486 37.8436 17.2087 37.8609 16.862V8.724C37.8609 8.34267 37.8002 8.06533 37.6789 7.892C37.5576 7.70133 37.3236 7.57133 36.9769 7.502L36.5869 7.398V7.138L41.0329 5.63L41.2929 5.89L41.5009 7.658C42.0729 7.086 42.7229 6.60067 43.4509 6.202C44.1962 5.80333 44.9676 5.604 45.7649 5.604C46.5969 5.604 47.2642 5.77733 47.7669 6.124C48.2696 6.45333 48.6509 6.97333 48.9109 7.684C49.5869 7.04267 50.3149 6.54 51.0949 6.176C51.8922 5.79467 52.6636 5.604 53.4089 5.604C54.6396 5.604 55.5409 5.89867 56.1129 6.488C56.7022 7.07733 56.9969 8.00467 56.9969 9.27V16.888C56.9969 17.564 57.3089 17.9887 57.9329 18.162L58.2189 18.24V18.5H52.2129V18.24L52.4729 18.162C52.8022 18.058 53.0276 17.902 53.1489 17.694C53.2876 17.486 53.3569 17.2087 53.3569 16.862V8.906C53.3569 8.178 53.2269 7.684 52.9669 7.424C52.7069 7.14667 52.2909 7.008 51.7189 7.008C51.2682 7.008 50.8262 7.112 50.3929 7.32C49.9769 7.51067 49.5349 7.80533 49.0669 8.204C49.1536 8.48133 49.2056 8.78467 49.2229 9.114C49.2576 9.44333 49.2749 9.79 49.2749 10.154V16.888C49.2922 17.564 49.6042 17.9887 50.2109 18.162L50.4449 18.24V18.5H44.4129V18.24L44.7769 18.136C45.1062 18.032 45.3316 17.8847 45.4529 17.694C45.5916 17.486 45.6609 17.2087 45.6609 16.862V8.932C45.6609 8.23867 45.5309 7.74467 45.2709 7.45C45.0282 7.15533 44.6036 7.008 43.9969 7.008C43.5982 7.008 43.1996 7.112 42.8009 7.32C42.4022 7.51067 41.9862 7.79667 41.5529 8.178V16.888C41.5529 17.564 41.8562 17.9887 42.4629 18.162L42.6969 18.24V18.5H36.5869ZM58.8545 24.48V24.22L59.1665 24.116C59.8078 23.9427 60.1285 23.5267 60.1285 22.868V8.724C60.1285 8.34267 60.0591 8.05667 59.9205 7.866C59.7991 7.67533 59.5651 7.54533 59.2185 7.476L58.8545 7.398V7.138L63.2745 5.63L63.5345 5.89L63.7685 6.696C64.3405 6.34933 64.9731 6.08067 65.6665 5.89C66.3771 5.69933 67.1051 5.604 67.8505 5.604C69.3411 5.604 70.5198 6.176 71.3865 7.32C72.2705 8.44667 72.7125 10.0673 72.7125 12.182C72.7125 14.262 72.2271 15.9 71.2565 17.096C70.3031 18.292 68.9511 18.89 67.2005 18.89C65.8311 18.89 64.6785 18.6907 63.7425 18.292V22.79C63.7425 23.4833 64.0545 23.9167 64.6785 24.09L65.1725 24.22V24.48H58.8545ZM65.9525 18.136C66.8191 18.136 67.5038 17.6853 68.0065 16.784C68.5265 15.8827 68.7865 14.3833 68.7865 12.286C68.7865 10.1887 68.5438 8.724 68.0585 7.892C67.5731 7.04267 66.8711 6.618 65.9525 6.618C65.3111 6.618 64.6005 6.826 63.8205 7.242V17.72C64.4791 17.9973 65.1898 18.136 65.9525 18.136ZM80.5641 5.604C81.6907 5.604 82.6527 5.838 83.4501 6.306C84.2474 6.75667 84.8541 7.38067 85.2701 8.178C85.7034 8.958 85.9201 9.85067 85.9201 10.856C85.9201 11.0467 85.9114 11.246 85.8941 11.454C85.8767 11.6447 85.8421 11.818 85.7901 11.974H78.0421C78.0594 13.846 78.3887 15.198 79.0301 16.03C79.6887 16.8447 80.6594 17.252 81.9421 17.252C82.8087 17.252 83.5107 17.1133 84.0481 16.836C84.5854 16.5587 85.0881 16.1513 85.5561 15.614L85.8161 15.848C85.2787 16.8013 84.5594 17.5467 83.6581 18.084C82.7741 18.6213 81.7081 18.89 80.4601 18.89C79.2294 18.89 78.1374 18.63 77.1841 18.11C76.2307 17.5727 75.4854 16.81 74.9481 15.822C74.4107 14.834 74.1421 13.6553 74.1421 12.286C74.1421 10.8647 74.4541 9.66 75.0781 8.672C75.7021 7.66667 76.4994 6.904 77.4701 6.384C78.4581 5.864 79.4894 5.604 80.5641 5.604ZM80.4861 6.124C79.9834 6.124 79.5501 6.28 79.1861 6.592C78.8394 6.88667 78.5621 7.424 78.3541 8.204C78.1634 8.96667 78.0594 10.05 78.0421 11.454H82.4881C82.6614 9.56467 82.5921 8.204 82.2801 7.372C81.9681 6.54 81.3701 6.124 80.4861 6.124ZM93.7418 5.604C94.8685 5.604 95.8305 5.838 96.6278 6.306C97.4251 6.75667 98.0318 7.38067 98.4478 8.178C98.8811 8.958 99.0978 9.85067 99.0978 10.856C99.0978 11.0467 99.0891 11.246 99.0718 11.454C99.0545 11.6447 99.0198 11.818 98.9678 11.974H91.2198C91.2371 13.846 91.5665 15.198 92.2078 16.03C92.8665 16.8447 93.8371 17.252 95.1198 17.252C95.9865 17.252 96.6885 17.1133 97.2258 16.836C97.7631 16.5587 98.2658 16.1513 98.7338 15.614L98.9938 15.848C98.4565 16.8013 97.7371 17.5467 96.8358 18.084C95.9518 18.6213 94.8858 18.89 93.6378 18.89C92.4071 18.89 91.3151 18.63 90.3618 18.11C89.4085 17.5727 88.6631 16.81 88.1258 15.822C87.5885 14.834 87.3198 13.6553 87.3198 12.286C87.3198 10.8647 87.6318 9.66 88.2558 8.672C88.8798 7.66667 89.6771 6.904 90.6478 6.384C91.6358 5.864 92.6671 5.604 93.7418 5.604ZM93.6638 6.124C93.1611 6.124 92.7278 6.28 92.3638 6.592C92.0171 6.88667 91.7398 7.424 91.5318 8.204C91.3411 8.96667 91.2371 10.05 91.2198 11.454H95.6658C95.8391 9.56467 95.7698 8.204 95.4578 7.372C95.1458 6.54 94.5478 6.124 93.6638 6.124Z" fill="#212223"/>
<path d="M103.774 18.89C103.15 18.89 102.621 18.6733 102.188 18.24C101.754 17.8067 101.538 17.2867 101.538 16.68C101.538 16.0733 101.754 15.5447 102.188 15.094C102.621 14.6433 103.15 14.418 103.774 14.418C104.398 14.418 104.926 14.6433 105.36 15.094C105.793 15.5447 106.01 16.0733 106.01 16.68C106.01 17.2867 105.793 17.8067 105.36 18.24C104.926 18.6733 104.398 18.89 103.774 18.89Z" fill="#0080F0"/>
</svg>
